<svg width="1440" height="367" viewBox="0 0 1440 367" fill="none" xmlns="http://www.w3.org/2000/svg">
<g filter="url(#filter0_d_101_2)">
<g filter="url(#filter1_d_101_2)">
<rect x="437.625" y="19.25" width="84.375" height="84.375" rx="7.875" fill="#2BC2B9"/>
<rect x="437.531" y="19.1562" width="84.5625" height="84.5625" rx="7.96875" stroke="#F0F0F0" stroke-width="0.1875"/>
</g>
<path d="M465.503 85V41.53H495.81V47.2675H472.86V60.43H493.313V66.1H472.86V79.33H495.81V85H465.503Z" fill="#F0F0F0"/>
<path d="M513.834 97.3288C513.609 97.3288 513.362 97.3104 513.094 97.2736C512.826 97.2369 512.603 97.1791 512.425 97.1004V96.3522C512.609 96.431 512.819 96.4914 513.055 96.5334C513.291 96.5754 513.514 96.5964 513.724 96.5964C514.128 96.5964 514.425 96.5281 514.614 96.3916C514.808 96.2499 514.905 96.0189 514.905 95.6986C514.905 95.4046 514.837 95.1867 514.701 95.045C514.564 94.9032 514.296 94.8324 513.897 94.8324H512.401V94.3126L512.535 92.1785H515.417L515.346 92.84H513.26L513.173 94.1709H514.031C514.635 94.1709 515.076 94.2995 515.354 94.5567C515.633 94.814 515.772 95.1999 515.772 95.7144C515.772 96.2131 515.609 96.6069 515.283 96.8956C514.958 97.1844 514.475 97.3288 513.834 97.3288Z" fill="#2BC2B9"/>
</g>
<g filter="url(#filter2_d_101_2)">
<g filter="url(#filter3_d_101_2)">
<rect x="1012.88" y="19.25" width="84.375" height="84.375" rx="7.875" fill="#2BC2B9"/>
<rect x="1012.78" y="19.1562" width="84.5625" height="84.5625" rx="7.96875" stroke="#F0F0F0" stroke-width="0.1875"/>
</g>
<path d="M1041.5 85V41.53H1048.86V79.33H1071.14V85H1041.5Z" fill="#F0F0F0"/>
<path d="M1089.09 97.3288C1088.94 97.3288 1088.77 97.3183 1088.59 97.2973C1088.4 97.2815 1088.23 97.2552 1088.06 97.2185C1087.9 97.1817 1087.76 97.1424 1087.65 97.1004V96.3522C1087.86 96.4362 1088.08 96.4992 1088.3 96.5412C1088.52 96.578 1088.75 96.5964 1088.97 96.5964C1089.38 96.5964 1089.69 96.536 1089.89 96.4152C1090.09 96.2945 1090.19 96.0819 1090.19 95.7774C1090.19 95.5044 1090.1 95.3075 1089.91 95.1867C1089.73 95.066 1089.48 95.0056 1089.14 95.0056H1088.38L1088.45 94.3677H1089.08C1089.75 94.3677 1090.08 94.1052 1090.08 93.5802C1090.08 93.323 1090 93.134 1089.82 93.0132C1089.64 92.8925 1089.36 92.8321 1088.97 92.8321C1088.76 92.8321 1088.54 92.8531 1088.32 92.8951C1088.11 92.9371 1087.91 92.9949 1087.75 93.0684V92.336C1087.9 92.273 1088.11 92.2179 1088.36 92.1706C1088.61 92.1234 1088.86 92.0997 1089.11 92.0997C1089.73 92.0997 1090.19 92.231 1090.49 92.4935C1090.79 92.756 1090.94 93.092 1090.94 93.5015C1090.94 93.7535 1090.88 93.9897 1090.75 94.2102C1090.63 94.4307 1090.44 94.5882 1090.18 94.6827C1090.48 94.7615 1090.7 94.9032 1090.84 95.108C1090.98 95.3127 1091.05 95.5542 1091.05 95.8325C1091.05 96.3417 1090.87 96.7197 1090.52 96.9665C1090.16 97.208 1089.69 97.3288 1089.09 97.3288Z" fill="#2BC2B9"/>
</g>
<g filter="url(#filter4_d_101_2)">
<g filter="url(#filter5_d_101_2)">
<rect x="724.875" y="19.25" width="84.375" height="84.375" rx="7.875" fill="#2BC2B9"/>
<rect x="724.781" y="19.1562" width="84.5625" height="84.5625" rx="7.96875" stroke="#F0F0F0" stroke-width="0.1875"/>
</g>
<path d="M767.115 85.675C760.23 85.675 755.078 83.875 751.658 80.275C748.238 76.63 746.528 71.005 746.528 63.4C746.528 55.48 748.238 49.7425 751.658 46.1875C755.078 42.6325 760.23 40.855 767.115 40.855C774.045 40.855 779.198 42.6325 782.573 46.1875C785.993 49.7425 787.703 55.48 787.703 63.4C787.703 71.005 785.993 76.63 782.573 80.275C779.198 83.875 774.045 85.675 767.115 85.675ZM767.115 79.465C771.66 79.465 774.99 78.2275 777.105 75.7525C779.265 73.2325 780.345 69.115 780.345 63.4C780.345 57.37 779.265 53.1625 777.105 50.7775C774.99 48.3475 771.66 47.1325 767.115 47.1325C762.615 47.1325 759.285 48.3475 757.125 50.7775C755.01 53.1625 753.953 57.37 753.953 63.4C753.953 69.115 755.01 73.2325 757.125 75.7525C759.285 78.2275 762.615 79.465 767.115 79.465Z" fill="#F0F0F0"/>
<path d="M801.573 97.3288C800.937 97.3288 800.457 97.1713 800.132 96.8562C799.811 96.5412 799.651 96.0451 799.651 95.3679V94.226C799.651 93.806 799.738 93.4359 799.911 93.1156C800.084 92.7954 800.331 92.546 800.651 92.3675C800.972 92.189 801.352 92.0997 801.793 92.0997C802.05 92.0997 802.274 92.1155 802.463 92.147C802.657 92.1785 802.835 92.2231 802.998 92.2809V93.0132C802.835 92.9555 802.659 92.9109 802.47 92.8794C802.287 92.8479 802.079 92.8321 801.848 92.8321C801.376 92.8321 801.027 92.945 800.801 93.1707C800.575 93.3912 800.462 93.6879 800.462 94.0606V94.3756C800.646 94.2391 800.856 94.1394 801.092 94.0764C801.334 94.0081 801.552 93.974 801.746 93.974C802.339 93.974 802.778 94.1184 803.061 94.4071C803.345 94.6959 803.486 95.1054 803.486 95.6356C803.486 96.1396 803.331 96.5491 803.022 96.8641C802.712 97.1739 802.229 97.3288 801.573 97.3288ZM801.581 96.683C801.959 96.683 802.242 96.5911 802.431 96.4074C802.62 96.2236 802.715 95.9769 802.715 95.6671C802.715 95.3416 802.636 95.0896 802.478 94.9111C802.326 94.7274 802.04 94.6355 801.62 94.6355C801.41 94.6355 801.203 94.6722 800.998 94.7457C800.798 94.814 800.62 94.9059 800.462 95.0214V95.5647C800.462 96.3102 800.835 96.683 801.581 96.683Z" fill="#2BC2B9"/>
</g>
<g filter="url(#filter6_d_101_2)">
<g filter="url(#filter7_d_101_2)">
<rect x="342" y="19.25" width="84.375" height="84.375" rx="7.875" fill="#2BC2B9"/>
<rect x="341.906" y="19.1562" width="84.5625" height="84.5625" rx="7.96875" stroke="#F0F0F0" stroke-width="0.1875"/>
</g>
<path d="M368.378 85V41.53H387.75C391.08 41.53 393.825 42.16 395.985 43.42C398.145 44.68 399.743 46.4125 400.778 48.6175C401.813 50.7775 402.33 53.2525 402.33 56.0425C402.33 60.3625 400.98 63.8275 398.28 66.4375C395.625 69.0475 392.025 70.3525 387.48 70.3525H375.735V85H368.378ZM375.735 64.5475H386.13C389.055 64.5475 391.26 63.7825 392.745 62.2525C394.23 60.7225 394.973 58.6525 394.973 56.0425C394.973 53.2525 394.253 51.0925 392.813 49.5625C391.418 48.0325 389.303 47.2675 386.468 47.2675H375.735V64.5475Z" fill="#F0F0F0"/>
<path d="M417.304 97.25L419.17 92.84H416.697V92.1785H420.092V92.7297L418.178 97.25H417.304Z" fill="#2BC2B9"/>
</g>
<g filter="url(#filter8_d_101_2)">
<g filter="url(#filter9_d_101_2)">
<rect x="533.25" y="19.25" width="84.375" height="84.375" rx="7.875" fill="#2BC2B9"/>
<rect x="533.156" y="19.1562" width="84.5625" height="84.5625" rx="7.96875" stroke="#F0F0F0" stroke-width="0.1875"/>
</g>
<path d="M559.253 85V41.53H579.233C584.093 41.53 587.625 42.79 589.83 45.31C592.08 47.785 593.205 51.16 593.205 55.435C593.205 58.495 592.44 61.105 590.91 63.265C589.38 65.425 587.175 66.9325 584.295 67.7875C585.105 68.3725 585.735 69.0025 586.185 69.6775C586.635 70.3525 587.085 71.2525 587.535 72.3775L593.003 85H585.443L580.11 72.85C579.615 71.68 579.008 70.8475 578.288 70.3525C577.613 69.8575 576.443 69.61 574.778 69.61H566.61V85H559.253ZM566.61 63.67H577.275C579.93 63.67 582.023 63.0175 583.553 61.7125C585.083 60.4075 585.848 58.315 585.848 55.435C585.848 49.99 583.215 47.2675 577.95 47.2675H566.61V63.67Z" fill="#F0F0F0"/>
<path d="M609.719 97.3288C609.462 97.3288 609.239 97.313 609.05 97.2815C608.861 97.25 608.682 97.208 608.514 97.1555V96.4152C608.677 96.4782 608.85 96.5255 609.034 96.557C609.223 96.5885 609.433 96.6042 609.664 96.6042C610.137 96.6042 610.486 96.4914 610.712 96.2656C610.937 96.0399 611.05 95.7406 611.05 95.3679V95.0529C610.866 95.1841 610.656 95.2839 610.42 95.3521C610.184 95.4204 609.966 95.4545 609.766 95.4545C609.179 95.4545 608.74 95.3101 608.451 95.0214C608.168 94.7326 608.026 94.3231 608.026 93.7929C608.026 93.2941 608.181 92.8872 608.491 92.5722C608.801 92.2572 609.284 92.0997 609.94 92.0997C610.575 92.0997 611.053 92.2599 611.373 92.5801C611.699 92.8951 611.861 93.3886 611.861 94.0606V95.2025C611.861 95.6225 611.775 95.9926 611.601 96.3129C611.428 96.6331 611.181 96.8825 610.861 97.061C610.541 97.2395 610.16 97.3288 609.719 97.3288ZM609.893 94.8009C610.108 94.8009 610.315 94.7641 610.515 94.6906C610.714 94.6171 610.893 94.5252 611.05 94.415V93.8637C611.05 93.1235 610.677 92.7534 609.932 92.7534C609.554 92.7534 609.27 92.8452 609.081 93.029C608.892 93.2127 608.798 93.4595 608.798 93.7692C608.798 94.0895 608.874 94.3415 609.026 94.5252C609.184 94.709 609.473 94.8009 609.893 94.8009Z" fill="#2BC2B9"/>
</g>
<g filter="url(#filter10_d_101_2)">
<g filter="url(#filter11_d_101_2)">
<rect x="871" y="255.25" width="84.375" height="84.375" rx="7.875" fill="#2BC2B9"/>
<rect x="870.906" y="255.156" width="84.5625" height="84.5625" rx="7.96875" stroke="#F0F0F0" stroke-width="0.1875"/>
</g>
<path d="M898.878 321V277.53H929.185V283.267H906.235V296.43H926.688V302.1H906.235V315.33H929.185V321H898.878Z" fill="#F0F0F0"/>
<path d="M947.209 333.329C946.984 333.329 946.737 333.31 946.469 333.274C946.201 333.237 945.978 333.179 945.8 333.1V332.352C945.984 332.431 946.194 332.491 946.43 332.533C946.666 332.575 946.889 332.596 947.099 332.596C947.503 332.596 947.8 332.528 947.989 332.392C948.183 332.25 948.28 332.019 948.28 331.699C948.28 331.405 948.212 331.187 948.076 331.045C947.939 330.903 947.671 330.832 947.272 330.832H945.776V330.313L945.91 328.178H948.792L948.721 328.84H946.635L946.548 330.171H947.406C948.01 330.171 948.451 330.299 948.729 330.557C949.008 330.814 949.147 331.2 949.147 331.714C949.147 332.213 948.984 332.607 948.658 332.896C948.333 333.184 947.85 333.329 947.209 333.329Z" fill="#2BC2B9"/>
</g>
<g filter="url(#filter12_d_101_2)">
<g filter="url(#filter13_d_101_2)">
<rect x="967" y="255.25" width="84.375" height="84.375" rx="7.875" fill="#2BC2B9"/>
<rect x="966.906" y="255.156" width="84.5625" height="84.5625" rx="7.96875" stroke="#F0F0F0" stroke-width="0.1875"/>
</g>
<path d="M993.003 321V277.53H1012.98C1017.84 277.53 1021.38 278.79 1023.58 281.31C1025.83 283.785 1026.96 287.16 1026.96 291.435C1026.96 294.495 1026.19 297.105 1024.66 299.265C1023.13 301.425 1020.93 302.932 1018.05 303.787C1018.86 304.372 1019.49 305.002 1019.94 305.677C1020.39 306.352 1020.84 307.252 1021.29 308.377L1026.75 321H1019.19L1013.86 308.85C1013.37 307.68 1012.76 306.847 1012.04 306.352C1011.36 305.857 1010.19 305.61 1008.53 305.61H1000.36V321H993.003ZM1000.36 299.67H1011.03C1013.68 299.67 1015.77 299.017 1017.3 297.712C1018.83 296.407 1019.6 294.315 1019.6 291.435C1019.6 285.99 1016.97 283.267 1011.7 283.267H1000.36V299.67Z" fill="#F0F0F0"/>
<path d="M1043.47 333.329C1043.21 333.329 1042.99 333.313 1042.8 333.282C1042.61 333.25 1042.43 333.208 1042.26 333.155V332.415C1042.43 332.478 1042.6 332.525 1042.78 332.557C1042.97 332.588 1043.18 332.604 1043.41 332.604C1043.89 332.604 1044.24 332.491 1044.46 332.266C1044.69 332.04 1044.8 331.741 1044.8 331.368V331.053C1044.62 331.184 1044.41 331.284 1044.17 331.352C1043.93 331.42 1043.72 331.454 1043.52 331.454C1042.93 331.454 1042.49 331.31 1042.2 331.021C1041.92 330.733 1041.78 330.323 1041.78 329.793C1041.78 329.294 1041.93 328.887 1042.24 328.572C1042.55 328.257 1043.03 328.1 1043.69 328.1C1044.33 328.1 1044.8 328.26 1045.12 328.58C1045.45 328.895 1045.61 329.389 1045.61 330.061V331.202C1045.61 331.622 1045.52 331.993 1045.35 332.313C1045.18 332.633 1044.93 332.882 1044.61 333.061C1044.29 333.24 1043.91 333.329 1043.47 333.329ZM1043.64 330.801C1043.86 330.801 1044.07 330.764 1044.26 330.691C1044.46 330.617 1044.64 330.525 1044.8 330.415V329.864C1044.8 329.123 1044.43 328.753 1043.68 328.753C1043.3 328.753 1043.02 328.845 1042.83 329.029C1042.64 329.213 1042.55 329.459 1042.55 329.769C1042.55 330.089 1042.62 330.341 1042.78 330.525C1042.93 330.709 1043.22 330.801 1043.64 330.801Z" fill="#2BC2B9"/>
</g>
<g filter="url(#filter14_d_101_2)">
<g filter="url(#filter15_d_101_2)">
<rect x="628.875" y="19.25" width="84.375" height="84.375" rx="7.875" fill="#2BC2B9"/>
<rect x="628.781" y="19.1562" width="84.5625" height="84.5625" rx="7.96875" stroke="#F0F0F0" stroke-width="0.1875"/>
</g>
<path d="M669.915 85.675C664.29 85.675 659.768 84.955 656.348 83.515V77.035C658.283 77.755 660.353 78.34 662.558 78.79C664.808 79.24 667.035 79.465 669.24 79.465C672.705 79.465 675.293 79.06 677.003 78.25C678.758 77.44 679.635 75.82 679.635 73.39C679.635 71.905 679.275 70.7125 678.555 69.8125C677.835 68.9125 676.643 68.1475 674.978 67.5175C673.313 66.8425 671.018 66.145 668.093 65.425C663.413 64.21 660.128 62.68 658.238 60.835C656.348 58.945 655.403 56.3575 655.403 53.0725C655.403 49.2475 656.798 46.255 659.588 44.095C662.378 41.935 666.54 40.855 672.075 40.855C674.595 40.855 676.958 41.035 679.163 41.395C681.413 41.755 683.168 42.16 684.428 42.61V49.09C681.008 47.785 677.228 47.1325 673.088 47.1325C669.848 47.1325 667.328 47.56 665.528 48.415C663.728 49.27 662.828 50.8225 662.828 53.0725C662.828 54.3775 663.143 55.435 663.773 56.245C664.403 57.055 665.483 57.7525 667.013 58.3375C668.588 58.9225 670.748 59.575 673.493 60.295C677.048 61.195 679.793 62.275 681.728 63.535C683.708 64.75 685.08 66.19 685.845 67.855C686.655 69.475 687.06 71.32 687.06 73.39C687.06 77.215 685.643 80.23 682.808 82.435C679.973 84.595 675.675 85.675 669.915 85.675Z" fill="#F0F0F0"/>
<path d="M704.47 97.25V92.9345L703.651 93.0762V92.3596L705.321 92.0997V97.25H704.47Z" fill="#2BC2B9"/>
</g>
<g filter="url(#filter16_d_101_2)">
<g filter="url(#filter17_d_101_2)">
<rect x="391" y="255.25" width="84.375" height="84.375" rx="7.875" fill="#2BC2B9"/>
<rect x="390.906" y="255.156" width="84.5625" height="84.5625" rx="7.96875" stroke="#F0F0F0" stroke-width="0.1875"/>
</g>
<path d="M429.4 321V283.267H415.495V277.53H450.595V283.267H436.758V321H429.4Z" fill="#F0F0F0"/>
<path d="M465.776 333.25V332.825C465.913 332.504 466.102 332.216 466.343 331.958C466.59 331.701 466.852 331.452 467.131 331.21C467.341 331.027 467.514 330.872 467.65 330.746C467.792 330.614 467.902 330.496 467.981 330.391C468.06 330.286 468.115 330.179 468.147 330.068C468.178 329.953 468.194 329.819 468.194 329.667C468.194 329.394 468.115 329.186 467.958 329.045C467.8 328.903 467.538 328.832 467.17 328.832C466.971 328.832 466.766 328.853 466.556 328.895C466.351 328.937 466.154 328.995 465.965 329.068V328.312C466.149 328.249 466.367 328.199 466.619 328.163C466.871 328.121 467.11 328.1 467.335 328.1C467.902 328.1 468.33 328.239 468.619 328.517C468.908 328.795 469.052 329.176 469.052 329.659C469.052 329.9 469.01 330.116 468.926 330.305C468.842 330.488 468.727 330.664 468.58 330.832C468.433 330.995 468.262 331.163 468.068 331.336C467.826 331.546 467.598 331.751 467.383 331.951C467.173 332.145 467.002 332.357 466.871 332.588H469.107V333.25H465.776Z" fill="#2BC2B9"/>
</g>
<g filter="url(#filter18_d_101_2)">
<g filter="url(#filter19_d_101_2)">
<rect x="820.875" y="19.25" width="84.375" height="84.375" rx="7.875" fill="#2BC2B9"/>
<rect x="820.781" y="19.1562" width="84.5625" height="84.5625" rx="7.96875" stroke="#F0F0F0" stroke-width="0.1875"/>
</g>
<path d="M844.628 85V41.53H851.108L873.788 73.525V41.53H881.078V85H874.598L851.985 53.0725V85H844.628Z" fill="#F0F0F0"/>
<path d="M897.084 97.3288C896.859 97.3288 896.612 97.3104 896.344 97.2736C896.076 97.2369 895.853 97.1791 895.675 97.1004V96.3522C895.859 96.431 896.069 96.4914 896.305 96.5334C896.541 96.5754 896.764 96.5964 896.974 96.5964C897.378 96.5964 897.675 96.5281 897.864 96.3916C898.058 96.2499 898.155 96.0189 898.155 95.6986C898.155 95.4046 898.087 95.1867 897.951 95.045C897.814 94.9032 897.546 94.8324 897.147 94.8324H895.651V94.3126L895.785 92.1785H898.667L898.596 92.84H896.51L896.423 94.1709H897.281C897.885 94.1709 898.326 94.2995 898.604 94.5567C898.883 94.814 899.022 95.1999 899.022 95.7144C899.022 96.2131 898.859 96.6069 898.533 96.8956C898.208 97.1844 897.725 97.3288 897.084 97.3288Z" fill="#2BC2B9"/>
</g>
<g filter="url(#filter20_d_101_2)">
<g filter="url(#filter21_d_101_2)">
<rect x="916.875" y="19.25" width="84.375" height="84.375" rx="7.875" fill="#2BC2B9"/>
<rect x="916.781" y="19.1562" width="84.5625" height="84.5625" rx="7.96875" stroke="#F0F0F0" stroke-width="0.1875"/>
</g>
<path d="M938.22 85L954.825 41.53H963.06L979.53 85H971.97L967.65 73.795H950.168L945.848 85H938.22ZM951.315 68.125H966.435L958.875 48.2125L951.315 68.125Z" fill="#F0F0F0"/>
<path d="M992.47 97.25V92.9345L991.651 93.0762V92.3596L993.321 92.0997V97.25H992.47Z" fill="#2BC2B9"/>
</g>
<g filter="url(#filter22_d_101_2)">
<g filter="url(#filter23_d_101_2)">
<rect x="583" y="255.25" width="84.375" height="84.375" rx="7.875" fill="#2BC2B9"/>
<rect x="582.906" y="255.156" width="84.5625" height="84.5625" rx="7.96875" stroke="#F0F0F0" stroke-width="0.1875"/>
</g>
<path d="M604.345 321L620.95 277.53H629.185L645.655 321H638.095L633.775 309.795H616.293L611.973 321H604.345ZM617.44 304.125H632.56L625 284.212L617.44 304.125Z" fill="#F0F0F0"/>
<path d="M658.595 333.25V328.934L657.776 329.076V328.36L659.446 328.1V333.25H658.595Z" fill="#2BC2B9"/>
</g>
<g filter="url(#filter24_d_101_2)">
<g filter="url(#filter25_d_101_2)">
<rect x="540" y="137.25" width="84.375" height="84.375" rx="7.875" fill="#2BC2B9"/>
<rect x="539.906" y="137.156" width="84.5625" height="84.5625" rx="7.96875" stroke="#F0F0F0" stroke-width="0.1875"/>
</g>
<path d="M565.845 203L555.72 159.53H562.943L570.3 192.132L578.535 164.795V159.53H584.543L593.79 192.132L601.283 159.53H608.438L598.38 203H591.158L582.45 172.557L573.203 203H565.845Z" fill="#F0F0F0"/>
<path d="M616.209 215.329C615.984 215.329 615.737 215.31 615.469 215.274C615.201 215.237 614.978 215.179 614.8 215.1V214.352C614.984 214.431 615.194 214.491 615.43 214.533C615.666 214.575 615.889 214.596 616.099 214.596C616.503 214.596 616.8 214.528 616.989 214.392C617.183 214.25 617.28 214.019 617.28 213.699C617.28 213.405 617.212 213.187 617.076 213.045C616.939 212.903 616.671 212.832 616.272 212.832H614.776V212.313L614.91 210.178H617.792L617.721 210.84H615.635L615.548 212.171H616.406C617.01 212.171 617.451 212.299 617.729 212.557C618.008 212.814 618.147 213.2 618.147 213.714C618.147 214.213 617.984 214.607 617.658 214.896C617.333 215.184 616.85 215.329 616.209 215.329Z" fill="#2BC2B9"/>
</g>
<g filter="url(#filter26_d_101_2)">
<g filter="url(#filter27_d_101_2)">
<rect x="636" y="137.25" width="84.375" height="84.375" rx="7.875" fill="#2BC2B9"/>
<rect x="635.906" y="137.156" width="84.5625" height="84.5625" rx="7.96875" stroke="#F0F0F0" stroke-width="0.1875"/>
</g>
<path d="M678.24 203.675C671.355 203.675 666.203 201.875 662.783 198.275C659.363 194.63 657.653 189.005 657.653 181.4C657.653 173.48 659.363 167.742 662.783 164.187C666.203 160.632 671.355 158.855 678.24 158.855C685.17 158.855 690.323 160.632 693.698 164.187C697.118 167.742 698.828 173.48 698.828 181.4C698.828 189.005 697.118 194.63 693.698 198.275C690.323 201.875 685.17 203.675 678.24 203.675ZM678.24 197.465C682.785 197.465 686.115 196.227 688.23 193.752C690.39 191.232 691.47 187.115 691.47 181.4C691.47 175.37 690.39 171.162 688.23 168.777C686.115 166.347 682.785 165.132 678.24 165.132C673.74 165.132 670.41 166.347 668.25 168.777C666.135 171.162 665.078 175.37 665.078 181.4C665.078 187.115 666.135 191.232 668.25 193.752C670.41 196.227 673.74 197.465 678.24 197.465Z" fill="#F0F0F0"/>
<path d="M712.698 215.329C712.062 215.329 711.582 215.171 711.257 214.856C710.936 214.541 710.776 214.045 710.776 213.368V212.226C710.776 211.806 710.863 211.436 711.036 211.116C711.209 210.795 711.456 210.546 711.776 210.367C712.097 210.189 712.477 210.1 712.918 210.1C713.175 210.1 713.399 210.115 713.588 210.147C713.782 210.178 713.96 210.223 714.123 210.281V211.013C713.96 210.955 713.784 210.911 713.595 210.879C713.412 210.848 713.204 210.832 712.973 210.832C712.501 210.832 712.152 210.945 711.926 211.171C711.7 211.391 711.587 211.688 711.587 212.061V212.376C711.771 212.239 711.981 212.139 712.217 212.076C712.459 212.008 712.677 211.974 712.871 211.974C713.464 211.974 713.903 212.118 714.186 212.407C714.47 212.696 714.611 213.105 714.611 213.636C714.611 214.14 714.456 214.549 714.147 214.864C713.837 215.174 713.354 215.329 712.698 215.329ZM712.706 214.683C713.084 214.683 713.367 214.591 713.556 214.407C713.745 214.224 713.84 213.977 713.84 213.667C713.84 213.342 713.761 213.09 713.603 212.911C713.451 212.727 713.165 212.635 712.745 212.635C712.535 212.635 712.328 212.672 712.123 212.746C711.923 212.814 711.745 212.906 711.587 213.021V213.565C711.587 214.31 711.96 214.683 712.706 214.683Z" fill="#2BC2B9"/>
</g>
<g filter="url(#filter28_d_101_2)">
<g filter="url(#filter29_d_101_2)">
<rect x="732" y="137.25" width="84.375" height="84.375" rx="7.875" fill="#2BC2B9"/>
<rect x="731.906" y="137.156" width="84.5625" height="84.5625" rx="7.96875" stroke="#F0F0F0" stroke-width="0.1875"/>
</g>
<path d="M758.003 203V159.53H777.983C782.843 159.53 786.375 160.79 788.58 163.31C790.83 165.785 791.955 169.16 791.955 173.435C791.955 176.495 791.19 179.105 789.66 181.265C788.13 183.425 785.925 184.932 783.045 185.787C783.855 186.372 784.485 187.002 784.935 187.677C785.385 188.352 785.835 189.252 786.285 190.377L791.753 203H784.193L778.86 190.85C778.365 189.68 777.758 188.847 777.038 188.352C776.363 187.857 775.193 187.61 773.528 187.61H765.36V203H758.003ZM765.36 181.67H776.025C778.68 181.67 780.773 181.017 782.303 179.712C783.833 178.407 784.598 176.315 784.598 173.435C784.598 167.99 781.965 165.267 776.7 165.267H765.36V181.67Z" fill="#F0F0F0"/>
<path d="M808.469 215.329C808.212 215.329 807.989 215.313 807.8 215.282C807.611 215.25 807.432 215.208 807.264 215.155V214.415C807.427 214.478 807.6 214.525 807.784 214.557C807.973 214.588 808.183 214.604 808.414 214.604C808.887 214.604 809.236 214.491 809.462 214.266C809.687 214.04 809.8 213.741 809.8 213.368V213.053C809.616 213.184 809.406 213.284 809.17 213.352C808.934 213.42 808.716 213.454 808.516 213.454C807.929 213.454 807.49 213.31 807.201 213.021C806.918 212.733 806.776 212.323 806.776 211.793C806.776 211.294 806.931 210.887 807.241 210.572C807.551 210.257 808.034 210.1 808.69 210.1C809.325 210.1 809.803 210.26 810.123 210.58C810.449 210.895 810.611 211.389 810.611 212.061V213.202C810.611 213.622 810.525 213.993 810.351 214.313C810.178 214.633 809.931 214.882 809.611 215.061C809.291 215.24 808.91 215.329 808.469 215.329ZM808.643 212.801C808.858 212.801 809.065 212.764 809.265 212.691C809.464 212.617 809.643 212.525 809.8 212.415V211.864C809.8 211.123 809.427 210.753 808.682 210.753C808.304 210.753 808.02 210.845 807.831 211.029C807.642 211.213 807.548 211.459 807.548 211.769C807.548 212.089 807.624 212.341 807.776 212.525C807.934 212.709 808.223 212.801 808.643 212.801Z" fill="#2BC2B9"/>
</g>
<g filter="url(#filter30_d_101_2)">
<g filter="url(#filter31_d_101_2)">
<rect x="487" y="255.25" width="84.375" height="84.375" rx="7.875" fill="#2BC2B9"/>
<rect x="486.906" y="255.156" width="84.5625" height="84.5625" rx="7.96875" stroke="#F0F0F0" stroke-width="0.1875"/>
</g>
<path d="M513.003 321V277.53H532.983C537.843 277.53 541.375 278.79 543.58 281.31C545.83 283.785 546.955 287.16 546.955 291.435C546.955 294.495 546.19 297.105 544.66 299.265C543.13 301.425 540.925 302.932 538.045 303.787C538.855 304.372 539.485 305.002 539.935 305.677C540.385 306.352 540.835 307.252 541.285 308.377L546.753 321H539.193L533.86 308.85C533.365 307.68 532.758 306.847 532.038 306.352C531.363 305.857 530.193 305.61 528.528 305.61H520.36V321H513.003ZM520.36 299.67H531.025C533.68 299.67 535.773 299.017 537.303 297.712C538.833 296.407 539.598 294.315 539.598 291.435C539.598 285.99 536.965 283.267 531.7 283.267H520.36V299.67Z" fill="#F0F0F0"/>
<path d="M563.469 333.329C563.212 333.329 562.989 333.313 562.8 333.282C562.611 333.25 562.432 333.208 562.264 333.155V332.415C562.427 332.478 562.6 332.525 562.784 332.557C562.973 332.588 563.183 332.604 563.414 332.604C563.887 332.604 564.236 332.491 564.462 332.266C564.687 332.04 564.8 331.741 564.8 331.368V331.053C564.616 331.184 564.406 331.284 564.17 331.352C563.934 331.42 563.716 331.454 563.516 331.454C562.929 331.454 562.49 331.31 562.201 331.021C561.918 330.733 561.776 330.323 561.776 329.793C561.776 329.294 561.931 328.887 562.241 328.572C562.551 328.257 563.034 328.1 563.69 328.1C564.325 328.1 564.803 328.26 565.123 328.58C565.449 328.895 565.611 329.389 565.611 330.061V331.202C565.611 331.622 565.525 331.993 565.351 332.313C565.178 332.633 564.931 332.882 564.611 333.061C564.291 333.24 563.91 333.329 563.469 333.329ZM563.643 330.801C563.858 330.801 564.065 330.764 564.265 330.691C564.464 330.617 564.643 330.525 564.8 330.415V329.864C564.8 329.123 564.427 328.753 563.682 328.753C563.304 328.753 563.02 328.845 562.831 329.029C562.642 329.213 562.548 329.459 562.548 329.769C562.548 330.089 562.624 330.341 562.776 330.525C562.934 330.709 563.223 330.801 563.643 330.801Z" fill="#2BC2B9"/>
</g>
<g filter="url(#filter32_d_101_2)">
<g filter="url(#filter33_d_101_2)">
<rect x="828" y="137.25" width="84.375" height="84.375" rx="7.875" fill="#2BC2B9"/>
<rect x="827.906" y="137.156" width="84.5625" height="84.5625" rx="7.96875" stroke="#F0F0F0" stroke-width="0.1875"/>
</g>
<path d="M852.503 203V159.53H870.12C876.555 159.53 881.325 161.24 884.43 164.66C887.535 168.035 889.088 173.66 889.088 181.535C889.088 188.96 887.558 194.405 884.498 197.87C881.438 201.29 876.645 203 870.12 203H852.503ZM859.86 197.33H868.973C871.808 197.33 874.17 196.925 876.06 196.115C877.95 195.26 879.368 193.685 880.313 191.39C881.258 189.095 881.73 185.81 881.73 181.535C881.73 177.26 881.303 173.952 880.448 171.612C879.593 169.272 878.22 167.63 876.33 166.685C874.485 165.74 872.033 165.267 868.973 165.267H859.86V197.33Z" fill="#F0F0F0"/>
<path d="M905.154 215.25V214.14H902.619V213.533L905.257 210.178H906.005V213.447H906.525V214.14H906.005V215.25H905.154ZM903.453 213.47H905.288V211.155L903.453 213.47Z" fill="#2BC2B9"/>
</g>
<g filter="url(#filter34_d_101_2)">
<g filter="url(#filter35_d_101_2)">
<rect x="679" y="255.25" width="84.375" height="84.375" rx="7.875" fill="#2BC2B9"/>
<rect x="678.906" y="255.156" width="84.5625" height="84.5625" rx="7.96875" stroke="#F0F0F0" stroke-width="0.1875"/>
</g>
<path d="M717.378 321V277.53H724.735V321H717.378Z" fill="#F0F0F0"/>
<path d="M755.469 333.329C755.212 333.329 754.989 333.313 754.8 333.282C754.611 333.25 754.432 333.208 754.264 333.155V332.415C754.427 332.478 754.6 332.525 754.784 332.557C754.973 332.588 755.183 332.604 755.414 332.604C755.887 332.604 756.236 332.491 756.462 332.266C756.687 332.04 756.8 331.741 756.8 331.368V331.053C756.616 331.184 756.406 331.284 756.17 331.352C755.934 331.42 755.716 331.454 755.516 331.454C754.929 331.454 754.49 331.31 754.201 331.021C753.918 330.733 753.776 330.323 753.776 329.793C753.776 329.294 753.931 328.887 754.241 328.572C754.551 328.257 755.034 328.1 755.69 328.1C756.325 328.1 756.803 328.26 757.123 328.58C757.449 328.895 757.611 329.389 757.611 330.061V331.202C757.611 331.622 757.525 331.993 757.351 332.313C757.178 332.633 756.931 332.882 756.611 333.061C756.291 333.24 755.91 333.329 755.469 333.329ZM755.643 330.801C755.858 330.801 756.065 330.764 756.265 330.691C756.464 330.617 756.643 330.525 756.8 330.415V329.864C756.8 329.123 756.427 328.753 755.682 328.753C755.304 328.753 755.02 328.845 754.831 329.029C754.642 329.213 754.548 329.459 754.548 329.769C754.548 330.089 754.624 330.341 754.776 330.525C754.934 330.709 755.223 330.801 755.643 330.801Z" fill="#2BC2B9"/>
</g>
<g filter="url(#filter36_d_101_2)">
<g filter="url(#filter37_d_101_2)">
<rect x="775" y="255.25" width="84.375" height="84.375" rx="7.875" fill="#2BC2B9"/>
<rect x="774.906" y="255.156" width="84.5625" height="84.5625" rx="7.96875" stroke="#F0F0F0" stroke-width="0.1875"/>
</g>
<path d="M798.753 321V277.53H805.233L827.913 309.525V277.53H835.203V321H828.723L806.11 289.072V321H798.753Z" fill="#F0F0F0"/>
<path d="M851.209 333.329C850.984 333.329 850.737 333.31 850.469 333.274C850.201 333.237 849.978 333.179 849.8 333.1V332.352C849.984 332.431 850.194 332.491 850.43 332.533C850.666 332.575 850.889 332.596 851.099 332.596C851.503 332.596 851.8 332.528 851.989 332.392C852.183 332.25 852.28 332.019 852.28 331.699C852.28 331.405 852.212 331.187 852.076 331.045C851.939 330.903 851.671 330.832 851.272 330.832H849.776V330.313L849.91 328.178H852.792L852.721 328.84H850.635L850.548 330.171H851.406C852.01 330.171 852.451 330.299 852.729 330.557C853.008 330.814 853.147 331.2 853.147 331.714C853.147 332.213 852.984 332.607 852.658 332.896C852.333 333.184 851.85 333.329 851.209 333.329Z" fill="#2BC2B9"/>
</g>
<defs>
<filter id="filter0_d_101_2" x="433.438" y="19.0625" width="92.75" height="92.75" filterUnits="userSpaceOnUse" color-interpolation-filters="sRGB">
<feFlood flood-opacity="0" result="BackgroundImageFix"/>
<feColorMatrix in="SourceAlpha" type="matrix" values="0 0 0 0 0 0 0 0 0 0 0 0 0 0 0 0 0 0 127 0" result="hardAlpha"/>
<feOffset dy="4"/>
<feGaussianBlur stdDeviation="2"/>
<feComposite in2="hardAlpha" operator="out"/>
<feColorMatrix type="matrix" values="0 0 0 0 0 0 0 0 0 0 0 0 0 0 0 0 0 0 0.25 0"/>
<feBlend mode="normal" in2="BackgroundImageFix" result="effect1_dropShadow_101_2"/>
<feBlend mode="normal" in="SourceGraphic" in2="effect1_dropShadow_101_2" result="shape"/>
</filter>
<filter id="filter1_d_101_2" x="437.438" y="19.0625" width="86.25" height="86.25" filterUnits="userSpaceOnUse" color-interpolation-filters="sRGB">
<feFlood flood-opacity="0" result="BackgroundImageFix"/>
<feColorMatrix in="SourceAlpha" type="matrix" values="0 0 0 0 0 0 0 0 0 0 0 0 0 0 0 0 0 0 127 0" result="hardAlpha"/>
<feOffset dx="0.75" dy="0.75"/>
<feGaussianBlur stdDeviation="0.375"/>
<feComposite in2="hardAlpha" operator="out"/>
<feColorMatrix type="matrix" values="0 0 0 0 0 0 0 0 0 0 0 0 0 0 0 0 0 0 0.25 0"/>
<feBlend mode="normal" in2="BackgroundImageFix" result="effect1_dropShadow_101_2"/>
<feBlend mode="normal" in="SourceGraphic" in2="effect1_dropShadow_101_2" result="shape"/>
</filter>
<filter id="filter2_d_101_2" x="1008.69" y="19.0625" width="92.75" height="92.75" filterUnits="userSpaceOnUse" color-interpolation-filters="sRGB">
<feFlood flood-opacity="0" result="BackgroundImageFix"/>
<feColorMatrix in="SourceAlpha" type="matrix" values="0 0 0 0 0 0 0 0 0 0 0 0 0 0 0 0 0 0 127 0" result="hardAlpha"/>
<feOffset dy="4"/>
<feGaussianBlur stdDeviation="2"/>
<feComposite in2="hardAlpha" operator="out"/>
<feColorMatrix type="matrix" values="0 0 0 0 0 0 0 0 0 0 0 0 0 0 0 0 0 0 0.25 0"/>
<feBlend mode="normal" in2="BackgroundImageFix" result="effect1_dropShadow_101_2"/>
<feBlend mode="normal" in="SourceGraphic" in2="effect1_dropShadow_101_2" result="shape"/>
</filter>
<filter id="filter3_d_101_2" x="1012.69" y="19.0625" width="86.25" height="86.25" filterUnits="userSpaceOnUse" color-interpolation-filters="sRGB">
<feFlood flood-opacity="0" result="BackgroundImageFix"/>
<feColorMatrix in="SourceAlpha" type="matrix" values="0 0 0 0 0 0 0 0 0 0 0 0 0 0 0 0 0 0 127 0" result="hardAlpha"/>
<feOffset dx="0.75" dy="0.75"/>
<feGaussianBlur stdDeviation="0.375"/>
<feComposite in2="hardAlpha" operator="out"/>
<feColorMatrix type="matrix" values="0 0 0 0 0 0 0 0 0 0 0 0 0 0 0 0 0 0 0.25 0"/>
<feBlend mode="normal" in2="BackgroundImageFix" result="effect1_dropShadow_101_2"/>
<feBlend mode="normal" in="SourceGraphic" in2="effect1_dropShadow_101_2" result="shape"/>
</filter>
<filter id="filter4_d_101_2" x="720.688" y="19.0625" width="92.75" height="92.75" filterUnits="userSpaceOnUse" color-interpolation-filters="sRGB">
<feFlood flood-opacity="0" result="BackgroundImageFix"/>
<feColorMatrix in="SourceAlpha" type="matrix" values="0 0 0 0 0 0 0 0 0 0 0 0 0 0 0 0 0 0 127 0" result="hardAlpha"/>
<feOffset dy="4"/>
<feGaussianBlur stdDeviation="2"/>
<feComposite in2="hardAlpha" operator="out"/>
<feColorMatrix type="matrix" values="0 0 0 0 0 0 0 0 0 0 0 0 0 0 0 0 0 0 0.25 0"/>
<feBlend mode="normal" in2="BackgroundImageFix" result="effect1_dropShadow_101_2"/>
<feBlend mode="normal" in="SourceGraphic" in2="effect1_dropShadow_101_2" result="shape"/>
</filter>
<filter id="filter5_d_101_2" x="724.688" y="19.0625" width="86.25" height="86.25" filterUnits="userSpaceOnUse" color-interpolation-filters="sRGB">
<feFlood flood-opacity="0" result="BackgroundImageFix"/>
<feColorMatrix in="SourceAlpha" type="matrix" values="0 0 0 0 0 0 0 0 0 0 0 0 0 0 0 0 0 0 127 0" result="hardAlpha"/>
<feOffset dx="0.75" dy="0.75"/>
<feGaussianBlur stdDeviation="0.375"/>
<feComposite in2="hardAlpha" operator="out"/>
<feColorMatrix type="matrix" values="0 0 0 0 0 0 0 0 0 0 0 0 0 0 0 0 0 0 0.25 0"/>
<feBlend mode="normal" in2="BackgroundImageFix" result="effect1_dropShadow_101_2"/>
<feBlend mode="normal" in="SourceGraphic" in2="effect1_dropShadow_101_2" result="shape"/>
</filter>
<filter id="filter6_d_101_2" x="337.812" y="19.0625" width="92.75" height="92.75" filterUnits="userSpaceOnUse" color-interpolation-filters="sRGB">
<feFlood flood-opacity="0" result="BackgroundImageFix"/>
<feColorMatrix in="SourceAlpha" type="matrix" values="0 0 0 0 0 0 0 0 0 0 0 0 0 0 0 0 0 0 127 0" result="hardAlpha"/>
<feOffset dy="4"/>
<feGaussianBlur stdDeviation="2"/>
<feComposite in2="hardAlpha" operator="out"/>
<feColorMatrix type="matrix" values="0 0 0 0 0 0 0 0 0 0 0 0 0 0 0 0 0 0 0.25 0"/>
<feBlend mode="normal" in2="BackgroundImageFix" result="effect1_dropShadow_101_2"/>
<feBlend mode="normal" in="SourceGraphic" in2="effect1_dropShadow_101_2" result="shape"/>
</filter>
<filter id="filter7_d_101_2" x="341.812" y="19.0625" width="86.25" height="86.25" filterUnits="userSpaceOnUse" color-interpolation-filters="sRGB">
<feFlood flood-opacity="0" result="BackgroundImageFix"/>
<feColorMatrix in="SourceAlpha" type="matrix" values="0 0 0 0 0 0 0 0 0 0 0 0 0 0 0 0 0 0 127 0" result="hardAlpha"/>
<feOffset dx="0.75" dy="0.75"/>
<feGaussianBlur stdDeviation="0.375"/>
<feComposite in2="hardAlpha" operator="out"/>
<feColorMatrix type="matrix" values="0 0 0 0 0 0 0 0 0 0 0 0 0 0 0 0 0 0 0.25 0"/>
<feBlend mode="normal" in2="BackgroundImageFix" result="effect1_dropShadow_101_2"/>
<feBlend mode="normal" in="SourceGraphic" in2="effect1_dropShadow_101_2" result="shape"/>
</filter>
<filter id="filter8_d_101_2" x="529.062" y="19.0625" width="92.75" height="92.75" filterUnits="userSpaceOnUse" color-interpolation-filters="sRGB">
<feFlood flood-opacity="0" result="BackgroundImageFix"/>
<feColorMatrix in="SourceAlpha" type="matrix" values="0 0 0 0 0 0 0 0 0 0 0 0 0 0 0 0 0 0 127 0" result="hardAlpha"/>
<feOffset dy="4"/>
<feGaussianBlur stdDeviation="2"/>
<feComposite in2="hardAlpha" operator="out"/>
<feColorMatrix type="matrix" values="0 0 0 0 0 0 0 0 0 0 0 0 0 0 0 0 0 0 0.25 0"/>
<feBlend mode="normal" in2="BackgroundImageFix" result="effect1_dropShadow_101_2"/>
<feBlend mode="normal" in="SourceGraphic" in2="effect1_dropShadow_101_2" result="shape"/>
</filter>
<filter id="filter9_d_101_2" x="533.062" y="19.0625" width="86.25" height="86.25" filterUnits="userSpaceOnUse" color-interpolation-filters="sRGB">
<feFlood flood-opacity="0" result="BackgroundImageFix"/>
<feColorMatrix in="SourceAlpha" type="matrix" values="0 0 0 0 0 0 0 0 0 0 0 0 0 0 0 0 0 0 127 0" result="hardAlpha"/>
<feOffset dx="0.75" dy="0.75"/>
<feGaussianBlur stdDeviation="0.375"/>
<feComposite in2="hardAlpha" operator="out"/>
<feColorMatrix type="matrix" values="0 0 0 0 0 0 0 0 0 0 0 0 0 0 0 0 0 0 0.25 0"/>
<feBlend mode="normal" in2="BackgroundImageFix" result="effect1_dropShadow_101_2"/>
<feBlend mode="normal" in="SourceGraphic" in2="effect1_dropShadow_101_2" result="shape"/>
</filter>
<filter id="filter10_d_101_2" x="866.812" y="255.062" width="92.75" height="92.75" filterUnits="userSpaceOnUse" color-interpolation-filters="sRGB">
<feFlood flood-opacity="0" result="BackgroundImageFix"/>
<feColorMatrix in="SourceAlpha" type="matrix" values="0 0 0 0 0 0 0 0 0 0 0 0 0 0 0 0 0 0 127 0" result="hardAlpha"/>
<feOffset dy="4"/>
<feGaussianBlur stdDeviation="2"/>
<feComposite in2="hardAlpha" operator="out"/>
<feColorMatrix type="matrix" values="0 0 0 0 0 0 0 0 0 0 0 0 0 0 0 0 0 0 0.25 0"/>
<feBlend mode="normal" in2="BackgroundImageFix" result="effect1_dropShadow_101_2"/>
<feBlend mode="normal" in="SourceGraphic" in2="effect1_dropShadow_101_2" result="shape"/>
</filter>
<filter id="filter11_d_101_2" x="870.812" y="255.062" width="86.25" height="86.25" filterUnits="userSpaceOnUse" color-interpolation-filters="sRGB">
<feFlood flood-opacity="0" result="BackgroundImageFix"/>
<feColorMatrix in="SourceAlpha" type="matrix" values="0 0 0 0 0 0 0 0 0 0 0 0 0 0 0 0 0 0 127 0" result="hardAlpha"/>
<feOffset dx="0.75" dy="0.75"/>
<feGaussianBlur stdDeviation="0.375"/>
<feComposite in2="hardAlpha" operator="out"/>
<feColorMatrix type="matrix" values="0 0 0 0 0 0 0 0 0 0 0 0 0 0 0 0 0 0 0.25 0"/>
<feBlend mode="normal" in2="BackgroundImageFix" result="effect1_dropShadow_101_2"/>
<feBlend mode="normal" in="SourceGraphic" in2="effect1_dropShadow_101_2" result="shape"/>
</filter>
<filter id="filter12_d_101_2" x="962.812" y="255.062" width="92.75" height="92.75" filterUnits="userSpaceOnUse" color-interpolation-filters="sRGB">
<feFlood flood-opacity="0" result="BackgroundImageFix"/>
<feColorMatrix in="SourceAlpha" type="matrix" values="0 0 0 0 0 0 0 0 0 0 0 0 0 0 0 0 0 0 127 0" result="hardAlpha"/>
<feOffset dy="4"/>
<feGaussianBlur stdDeviation="2"/>
<feComposite in2="hardAlpha" operator="out"/>
<feColorMatrix type="matrix" values="0 0 0 0 0 0 0 0 0 0 0 0 0 0 0 0 0 0 0.25 0"/>
<feBlend mode="normal" in2="BackgroundImageFix" result="effect1_dropShadow_101_2"/>
<feBlend mode="normal" in="SourceGraphic" in2="effect1_dropShadow_101_2" result="shape"/>
</filter>
<filter id="filter13_d_101_2" x="966.812" y="255.062" width="86.25" height="86.25" filterUnits="userSpaceOnUse" color-interpolation-filters="sRGB">
<feFlood flood-opacity="0" result="BackgroundImageFix"/>
<feColorMatrix in="SourceAlpha" type="matrix" values="0 0 0 0 0 0 0 0 0 0 0 0 0 0 0 0 0 0 127 0" result="hardAlpha"/>
<feOffset dx="0.75" dy="0.75"/>
<feGaussianBlur stdDeviation="0.375"/>
<feComposite in2="hardAlpha" operator="out"/>
<feColorMatrix type="matrix" values="0 0 0 0 0 0 0 0 0 0 0 0 0 0 0 0 0 0 0.25 0"/>
<feBlend mode="normal" in2="BackgroundImageFix" result="effect1_dropShadow_101_2"/>
<feBlend mode="normal" in="SourceGraphic" in2="effect1_dropShadow_101_2" result="shape"/>
</filter>
<filter id="filter14_d_101_2" x="624.688" y="19.0625" width="92.75" height="92.75" filterUnits="userSpaceOnUse" color-interpolation-filters="sRGB">
<feFlood flood-opacity="0" result="BackgroundImageFix"/>
<feColorMatrix in="SourceAlpha" type="matrix" values="0 0 0 0 0 0 0 0 0 0 0 0 0 0 0 0 0 0 127 0" result="hardAlpha"/>
<feOffset dy="4"/>
<feGaussianBlur stdDeviation="2"/>
<feComposite in2="hardAlpha" operator="out"/>
<feColorMatrix type="matrix" values="0 0 0 0 0 0 0 0 0 0 0 0 0 0 0 0 0 0 0.25 0"/>
<feBlend mode="normal" in2="BackgroundImageFix" result="effect1_dropShadow_101_2"/>
<feBlend mode="normal" in="SourceGraphic" in2="effect1_dropShadow_101_2" result="shape"/>
</filter>
<filter id="filter15_d_101_2" x="628.688" y="19.0625" width="86.25" height="86.25" filterUnits="userSpaceOnUse" color-interpolation-filters="sRGB">
<feFlood flood-opacity="0" result="BackgroundImageFix"/>
<feColorMatrix in="SourceAlpha" type="matrix" values="0 0 0 0 0 0 0 0 0 0 0 0 0 0 0 0 0 0 127 0" result="hardAlpha"/>
<feOffset dx="0.75" dy="0.75"/>
<feGaussianBlur stdDeviation="0.375"/>
<feComposite in2="hardAlpha" operator="out"/>
<feColorMatrix type="matrix" values="0 0 0 0 0 0 0 0 0 0 0 0 0 0 0 0 0 0 0.25 0"/>
<feBlend mode="normal" in2="BackgroundImageFix" result="effect1_dropShadow_101_2"/>
<feBlend mode="normal" in="SourceGraphic" in2="effect1_dropShadow_101_2" result="shape"/>
</filter>
<filter id="filter16_d_101_2" x="386.812" y="255.062" width="92.75" height="92.75" filterUnits="userSpaceOnUse" color-interpolation-filters="sRGB">
<feFlood flood-opacity="0" result="BackgroundImageFix"/>
<feColorMatrix in="SourceAlpha" type="matrix" values="0 0 0 0 0 0 0 0 0 0 0 0 0 0 0 0 0 0 127 0" result="hardAlpha"/>
<feOffset dy="4"/>
<feGaussianBlur stdDeviation="2"/>
<feComposite in2="hardAlpha" operator="out"/>
<feColorMatrix type="matrix" values="0 0 0 0 0 0 0 0 0 0 0 0 0 0 0 0 0 0 0.25 0"/>
<feBlend mode="normal" in2="BackgroundImageFix" result="effect1_dropShadow_101_2"/>
<feBlend mode="normal" in="SourceGraphic" in2="effect1_dropShadow_101_2" result="shape"/>
</filter>
<filter id="filter17_d_101_2" x="390.812" y="255.062" width="86.25" height="86.25" filterUnits="userSpaceOnUse" color-interpolation-filters="sRGB">
<feFlood flood-opacity="0" result="BackgroundImageFix"/>
<feColorMatrix in="SourceAlpha" type="matrix" values="0 0 0 0 0 0 0 0 0 0 0 0 0 0 0 0 0 0 127 0" result="hardAlpha"/>
<feOffset dx="0.75" dy="0.75"/>
<feGaussianBlur stdDeviation="0.375"/>
<feComposite in2="hardAlpha" operator="out"/>
<feColorMatrix type="matrix" values="0 0 0 0 0 0 0 0 0 0 0 0 0 0 0 0 0 0 0.25 0"/>
<feBlend mode="normal" in2="BackgroundImageFix" result="effect1_dropShadow_101_2"/>
<feBlend mode="normal" in="SourceGraphic" in2="effect1_dropShadow_101_2" result="shape"/>
</filter>
<filter id="filter18_d_101_2" x="816.688" y="19.0625" width="92.75" height="92.75" filterUnits="userSpaceOnUse" color-interpolation-filters="sRGB">
<feFlood flood-opacity="0" result="BackgroundImageFix"/>
<feColorMatrix in="SourceAlpha" type="matrix" values="0 0 0 0 0 0 0 0 0 0 0 0 0 0 0 0 0 0 127 0" result="hardAlpha"/>
<feOffset dy="4"/>
<feGaussianBlur stdDeviation="2"/>
<feComposite in2="hardAlpha" operator="out"/>
<feColorMatrix type="matrix" values="0 0 0 0 0 0 0 0 0 0 0 0 0 0 0 0 0 0 0.25 0"/>
<feBlend mode="normal" in2="BackgroundImageFix" result="effect1_dropShadow_101_2"/>
<feBlend mode="normal" in="SourceGraphic" in2="effect1_dropShadow_101_2" result="shape"/>
</filter>
<filter id="filter19_d_101_2" x="820.688" y="19.0625" width="86.25" height="86.25" filterUnits="userSpaceOnUse" color-interpolation-filters="sRGB">
<feFlood flood-opacity="0" result="BackgroundImageFix"/>
<feColorMatrix in="SourceAlpha" type="matrix" values="0 0 0 0 0 0 0 0 0 0 0 0 0 0 0 0 0 0 127 0" result="hardAlpha"/>
<feOffset dx="0.75" dy="0.75"/>
<feGaussianBlur stdDeviation="0.375"/>
<feComposite in2="hardAlpha" operator="out"/>
<feColorMatrix type="matrix" values="0 0 0 0 0 0 0 0 0 0 0 0 0 0 0 0 0 0 0.25 0"/>
<feBlend mode="normal" in2="BackgroundImageFix" result="effect1_dropShadow_101_2"/>
<feBlend mode="normal" in="SourceGraphic" in2="effect1_dropShadow_101_2" result="shape"/>
</filter>
<filter id="filter20_d_101_2" x="912.688" y="19.0625" width="92.75" height="92.75" filterUnits="userSpaceOnUse" color-interpolation-filters="sRGB">
<feFlood flood-opacity="0" result="BackgroundImageFix"/>
<feColorMatrix in="SourceAlpha" type="matrix" values="0 0 0 0 0 0 0 0 0 0 0 0 0 0 0 0 0 0 127 0" result="hardAlpha"/>
<feOffset dy="4"/>
<feGaussianBlur stdDeviation="2"/>
<feComposite in2="hardAlpha" operator="out"/>
<feColorMatrix type="matrix" values="0 0 0 0 0 0 0 0 0 0 0 0 0 0 0 0 0 0 0.25 0"/>
<feBlend mode="normal" in2="BackgroundImageFix" result="effect1_dropShadow_101_2"/>
<feBlend mode="normal" in="SourceGraphic" in2="effect1_dropShadow_101_2" result="shape"/>
</filter>
<filter id="filter21_d_101_2" x="916.688" y="19.0625" width="86.25" height="86.25" filterUnits="userSpaceOnUse" color-interpolation-filters="sRGB">
<feFlood flood-opacity="0" result="BackgroundImageFix"/>
<feColorMatrix in="SourceAlpha" type="matrix" values="0 0 0 0 0 0 0 0 0 0 0 0 0 0 0 0 0 0 127 0" result="hardAlpha"/>
<feOffset dx="0.75" dy="0.75"/>
<feGaussianBlur stdDeviation="0.375"/>
<feComposite in2="hardAlpha" operator="out"/>
<feColorMatrix type="matrix" values="0 0 0 0 0 0 0 0 0 0 0 0 0 0 0 0 0 0 0.25 0"/>
<feBlend mode="normal" in2="BackgroundImageFix" result="effect1_dropShadow_101_2"/>
<feBlend mode="normal" in="SourceGraphic" in2="effect1_dropShadow_101_2" result="shape"/>
</filter>
<filter id="filter22_d_101_2" x="578.812" y="255.062" width="92.75" height="92.75" filterUnits="userSpaceOnUse" color-interpolation-filters="sRGB">
<feFlood flood-opacity="0" result="BackgroundImageFix"/>
<feColorMatrix in="SourceAlpha" type="matrix" values="0 0 0 0 0 0 0 0 0 0 0 0 0 0 0 0 0 0 127 0" result="hardAlpha"/>
<feOffset dy="4"/>
<feGaussianBlur stdDeviation="2"/>
<feComposite in2="hardAlpha" operator="out"/>
<feColorMatrix type="matrix" values="0 0 0 0 0 0 0 0 0 0 0 0 0 0 0 0 0 0 0.25 0"/>
<feBlend mode="normal" in2="BackgroundImageFix" result="effect1_dropShadow_101_2"/>
<feBlend mode="normal" in="SourceGraphic" in2="effect1_dropShadow_101_2" result="shape"/>
</filter>
<filter id="filter23_d_101_2" x="582.812" y="255.062" width="86.25" height="86.25" filterUnits="userSpaceOnUse" color-interpolation-filters="sRGB">
<feFlood flood-opacity="0" result="BackgroundImageFix"/>
<feColorMatrix in="SourceAlpha" type="matrix" values="0 0 0 0 0 0 0 0 0 0 0 0 0 0 0 0 0 0 127 0" result="hardAlpha"/>
<feOffset dx="0.75" dy="0.75"/>
<feGaussianBlur stdDeviation="0.375"/>
<feComposite in2="hardAlpha" operator="out"/>
<feColorMatrix type="matrix" values="0 0 0 0 0 0 0 0 0 0 0 0 0 0 0 0 0 0 0.25 0"/>
<feBlend mode="normal" in2="BackgroundImageFix" result="effect1_dropShadow_101_2"/>
<feBlend mode="normal" in="SourceGraphic" in2="effect1_dropShadow_101_2" result="shape"/>
</filter>
<filter id="filter24_d_101_2" x="535.812" y="137.062" width="92.75" height="92.75" filterUnits="userSpaceOnUse" color-interpolation-filters="sRGB">
<feFlood flood-opacity="0" result="BackgroundImageFix"/>
<feColorMatrix in="SourceAlpha" type="matrix" values="0 0 0 0 0 0 0 0 0 0 0 0 0 0 0 0 0 0 127 0" result="hardAlpha"/>
<feOffset dy="4"/>
<feGaussianBlur stdDeviation="2"/>
<feComposite in2="hardAlpha" operator="out"/>
<feColorMatrix type="matrix" values="0 0 0 0 0 0 0 0 0 0 0 0 0 0 0 0 0 0 0.25 0"/>
<feBlend mode="normal" in2="BackgroundImageFix" result="effect1_dropShadow_101_2"/>
<feBlend mode="normal" in="SourceGraphic" in2="effect1_dropShadow_101_2" result="shape"/>
</filter>
<filter id="filter25_d_101_2" x="539.812" y="137.062" width="86.25" height="86.25" filterUnits="userSpaceOnUse" color-interpolation-filters="sRGB">
<feFlood flood-opacity="0" result="BackgroundImageFix"/>
<feColorMatrix in="SourceAlpha" type="matrix" values="0 0 0 0 0 0 0 0 0 0 0 0 0 0 0 0 0 0 127 0" result="hardAlpha"/>
<feOffset dx="0.75" dy="0.75"/>
<feGaussianBlur stdDeviation="0.375"/>
<feComposite in2="hardAlpha" operator="out"/>
<feColorMatrix type="matrix" values="0 0 0 0 0 0 0 0 0 0 0 0 0 0 0 0 0 0 0.25 0"/>
<feBlend mode="normal" in2="BackgroundImageFix" result="effect1_dropShadow_101_2"/>
<feBlend mode="normal" in="SourceGraphic" in2="effect1_dropShadow_101_2" result="shape"/>
</filter>
<filter id="filter26_d_101_2" x="631.812" y="137.062" width="92.75" height="92.75" filterUnits="userSpaceOnUse" color-interpolation-filters="sRGB">
<feFlood flood-opacity="0" result="BackgroundImageFix"/>
<feColorMatrix in="SourceAlpha" type="matrix" values="0 0 0 0 0 0 0 0 0 0 0 0 0 0 0 0 0 0 127 0" result="hardAlpha"/>
<feOffset dy="4"/>
<feGaussianBlur stdDeviation="2"/>
<feComposite in2="hardAlpha" operator="out"/>
<feColorMatrix type="matrix" values="0 0 0 0 0 0 0 0 0 0 0 0 0 0 0 0 0 0 0.25 0"/>
<feBlend mode="normal" in2="BackgroundImageFix" result="effect1_dropShadow_101_2"/>
<feBlend mode="normal" in="SourceGraphic" in2="effect1_dropShadow_101_2" result="shape"/>
</filter>
<filter id="filter27_d_101_2" x="635.812" y="137.062" width="86.25" height="86.25" filterUnits="userSpaceOnUse" color-interpolation-filters="sRGB">
<feFlood flood-opacity="0" result="BackgroundImageFix"/>
<feColorMatrix in="SourceAlpha" type="matrix" values="0 0 0 0 0 0 0 0 0 0 0 0 0 0 0 0 0 0 127 0" result="hardAlpha"/>
<feOffset dx="0.75" dy="0.75"/>
<feGaussianBlur stdDeviation="0.375"/>
<feComposite in2="hardAlpha" operator="out"/>
<feColorMatrix type="matrix" values="0 0 0 0 0 0 0 0 0 0 0 0 0 0 0 0 0 0 0.25 0"/>
<feBlend mode="normal" in2="BackgroundImageFix" result="effect1_dropShadow_101_2"/>
<feBlend mode="normal" in="SourceGraphic" in2="effect1_dropShadow_101_2" result="shape"/>
</filter>
<filter id="filter28_d_101_2" x="727.812" y="137.062" width="92.75" height="92.75" filterUnits="userSpaceOnUse" color-interpolation-filters="sRGB">
<feFlood flood-opacity="0" result="BackgroundImageFix"/>
<feColorMatrix in="SourceAlpha" type="matrix" values="0 0 0 0 0 0 0 0 0 0 0 0 0 0 0 0 0 0 127 0" result="hardAlpha"/>
<feOffset dy="4"/>
<feGaussianBlur stdDeviation="2"/>
<feComposite in2="hardAlpha" operator="out"/>
<feColorMatrix type="matrix" values="0 0 0 0 0 0 0 0 0 0 0 0 0 0 0 0 0 0 0.25 0"/>
<feBlend mode="normal" in2="BackgroundImageFix" result="effect1_dropShadow_101_2"/>
<feBlend mode="normal" in="SourceGraphic" in2="effect1_dropShadow_101_2" result="shape"/>
</filter>
<filter id="filter29_d_101_2" x="731.812" y="137.062" width="86.25" height="86.25" filterUnits="userSpaceOnUse" color-interpolation-filters="sRGB">
<feFlood flood-opacity="0" result="BackgroundImageFix"/>
<feColorMatrix in="SourceAlpha" type="matrix" values="0 0 0 0 0 0 0 0 0 0 0 0 0 0 0 0 0 0 127 0" result="hardAlpha"/>
<feOffset dx="0.75" dy="0.75"/>
<feGaussianBlur stdDeviation="0.375"/>
<feComposite in2="hardAlpha" operator="out"/>
<feColorMatrix type="matrix" values="0 0 0 0 0 0 0 0 0 0 0 0 0 0 0 0 0 0 0.25 0"/>
<feBlend mode="normal" in2="BackgroundImageFix" result="effect1_dropShadow_101_2"/>
<feBlend mode="normal" in="SourceGraphic" in2="effect1_dropShadow_101_2" result="shape"/>
</filter>
<filter id="filter30_d_101_2" x="482.812" y="255.062" width="92.75" height="92.75" filterUnits="userSpaceOnUse" color-interpolation-filters="sRGB">
<feFlood flood-opacity="0" result="BackgroundImageFix"/>
<feColorMatrix in="SourceAlpha" type="matrix" values="0 0 0 0 0 0 0 0 0 0 0 0 0 0 0 0 0 0 127 0" result="hardAlpha"/>
<feOffset dy="4"/>
<feGaussianBlur stdDeviation="2"/>
<feComposite in2="hardAlpha" operator="out"/>
<feColorMatrix type="matrix" values="0 0 0 0 0 0 0 0 0 0 0 0 0 0 0 0 0 0 0.25 0"/>
<feBlend mode="normal" in2="BackgroundImageFix" result="effect1_dropShadow_101_2"/>
<feBlend mode="normal" in="SourceGraphic" in2="effect1_dropShadow_101_2" result="shape"/>
</filter>
<filter id="filter31_d_101_2" x="486.812" y="255.062" width="86.25" height="86.25" filterUnits="userSpaceOnUse" color-interpolation-filters="sRGB">
<feFlood flood-opacity="0" result="BackgroundImageFix"/>
<feColorMatrix in="SourceAlpha" type="matrix" values="0 0 0 0 0 0 0 0 0 0 0 0 0 0 0 0 0 0 127 0" result="hardAlpha"/>
<feOffset dx="0.75" dy="0.75"/>
<feGaussianBlur stdDeviation="0.375"/>
<feComposite in2="hardAlpha" operator="out"/>
<feColorMatrix type="matrix" values="0 0 0 0 0 0 0 0 0 0 0 0 0 0 0 0 0 0 0.25 0"/>
<feBlend mode="normal" in2="BackgroundImageFix" result="effect1_dropShadow_101_2"/>
<feBlend mode="normal" in="SourceGraphic" in2="effect1_dropShadow_101_2" result="shape"/>
</filter>
<filter id="filter32_d_101_2" x="823.812" y="137.062" width="92.75" height="92.75" filterUnits="userSpaceOnUse" color-interpolation-filters="sRGB">
<feFlood flood-opacity="0" result="BackgroundImageFix"/>
<feColorMatrix in="SourceAlpha" type="matrix" values="0 0 0 0 0 0 0 0 0 0 0 0 0 0 0 0 0 0 127 0" result="hardAlpha"/>
<feOffset dy="4"/>
<feGaussianBlur stdDeviation="2"/>
<feComposite in2="hardAlpha" operator="out"/>
<feColorMatrix type="matrix" values="0 0 0 0 0 0 0 0 0 0 0 0 0 0 0 0 0 0 0.25 0"/>
<feBlend mode="normal" in2="BackgroundImageFix" result="effect1_dropShadow_101_2"/>
<feBlend mode="normal" in="SourceGraphic" in2="effect1_dropShadow_101_2" result="shape"/>
</filter>
<filter id="filter33_d_101_2" x="827.812" y="137.062" width="86.25" height="86.25" filterUnits="userSpaceOnUse" color-interpolation-filters="sRGB">
<feFlood flood-opacity="0" result="BackgroundImageFix"/>
<feColorMatrix in="SourceAlpha" type="matrix" values="0 0 0 0 0 0 0 0 0 0 0 0 0 0 0 0 0 0 127 0" result="hardAlpha"/>
<feOffset dx="0.75" dy="0.75"/>
<feGaussianBlur stdDeviation="0.375"/>
<feComposite in2="hardAlpha" operator="out"/>
<feColorMatrix type="matrix" values="0 0 0 0 0 0 0 0 0 0 0 0 0 0 0 0 0 0 0.25 0"/>
<feBlend mode="normal" in2="BackgroundImageFix" result="effect1_dropShadow_101_2"/>
<feBlend mode="normal" in="SourceGraphic" in2="effect1_dropShadow_101_2" result="shape"/>
</filter>
<filter id="filter34_d_101_2" x="674.812" y="255.062" width="92.75" height="92.75" filterUnits="userSpaceOnUse" color-interpolation-filters="sRGB">
<feFlood flood-opacity="0" result="BackgroundImageFix"/>
<feColorMatrix in="SourceAlpha" type="matrix" values="0 0 0 0 0 0 0 0 0 0 0 0 0 0 0 0 0 0 127 0" result="hardAlpha"/>
<feOffset dy="4"/>
<feGaussianBlur stdDeviation="2"/>
<feComposite in2="hardAlpha" operator="out"/>
<feColorMatrix type="matrix" values="0 0 0 0 0 0 0 0 0 0 0 0 0 0 0 0 0 0 0.25 0"/>
<feBlend mode="normal" in2="BackgroundImageFix" result="effect1_dropShadow_101_2"/>
<feBlend mode="normal" in="SourceGraphic" in2="effect1_dropShadow_101_2" result="shape"/>
</filter>
<filter id="filter35_d_101_2" x="678.812" y="255.062" width="86.25" height="86.25" filterUnits="userSpaceOnUse" color-interpolation-filters="sRGB">
<feFlood flood-opacity="0" result="BackgroundImageFix"/>
<feColorMatrix in="SourceAlpha" type="matrix" values="0 0 0 0 0 0 0 0 0 0 0 0 0 0 0 0 0 0 127 0" result="hardAlpha"/>
<feOffset dx="0.75" dy="0.75"/>
<feGaussianBlur stdDeviation="0.375"/>
<feComposite in2="hardAlpha" operator="out"/>
<feColorMatrix type="matrix" values="0 0 0 0 0 0 0 0 0 0 0 0 0 0 0 0 0 0 0.25 0"/>
<feBlend mode="normal" in2="BackgroundImageFix" result="effect1_dropShadow_101_2"/>
<feBlend mode="normal" in="SourceGraphic" in2="effect1_dropShadow_101_2" result="shape"/>
</filter>
<filter id="filter36_d_101_2" x="770.812" y="255.062" width="92.75" height="92.75" filterUnits="userSpaceOnUse" color-interpolation-filters="sRGB">
<feFlood flood-opacity="0" result="BackgroundImageFix"/>
<feColorMatrix in="SourceAlpha" type="matrix" values="0 0 0 0 0 0 0 0 0 0 0 0 0 0 0 0 0 0 127 0" result="hardAlpha"/>
<feOffset dy="4"/>
<feGaussianBlur stdDeviation="2"/>
<feComposite in2="hardAlpha" operator="out"/>
<feColorMatrix type="matrix" values="0 0 0 0 0 0 0 0 0 0 0 0 0 0 0 0 0 0 0.25 0"/>
<feBlend mode="normal" in2="BackgroundImageFix" result="effect1_dropShadow_101_2"/>
<feBlend mode="normal" in="SourceGraphic" in2="effect1_dropShadow_101_2" result="shape"/>
</filter>
<filter id="filter37_d_101_2" x="774.812" y="255.062" width="86.25" height="86.25" filterUnits="userSpaceOnUse" color-interpolation-filters="sRGB">
<feFlood flood-opacity="0" result="BackgroundImageFix"/>
<feColorMatrix in="SourceAlpha" type="matrix" values="0 0 0 0 0 0 0 0 0 0 0 0 0 0 0 0 0 0 127 0" result="hardAlpha"/>
<feOffset dx="0.75" dy="0.75"/>
<feGaussianBlur stdDeviation="0.375"/>
<feComposite in2="hardAlpha" operator="out"/>
<feColorMatrix type="matrix" values="0 0 0 0 0 0 0 0 0 0 0 0 0 0 0 0 0 0 0.25 0"/>
<feBlend mode="normal" in2="BackgroundImageFix" result="effect1_dropShadow_101_2"/>
<feBlend mode="normal" in="SourceGraphic" in2="effect1_dropShadow_101_2" result="shape"/>
</filter>
</defs>
</svg>
