<svg width="59" height="16" viewBox="0 0 59 16" fill="none" xmlns="http://www.w3.org/2000/svg">
<path d="M10.3053 0.875828C13.0728 0.875828 14.999 1.36954 16.0838 2.35695C17.1685 3.33046 17.7109 4.70728 17.7109 6.48742C17.7109 7.71126 17.4954 8.7543 17.0642 9.61656C16.6331 10.4649 15.8752 11.1325 14.7904 11.6192C13.7056 12.0921 12.2106 12.3285 10.3053 12.3285H5.96623V16H0.834437C0.945695 13.302 1.00132 10.7778 1.00132 8.42748C1.00132 6.07715 0.945695 3.55298 0.834437 0.854968H5.96623V0.875828H10.3053ZM8.84503 8.30232C9.99934 8.30232 10.8616 8.2606 11.4318 8.17715C12.0159 8.0798 12.4192 7.91291 12.6417 7.67649C12.8781 7.44007 12.9964 7.09238 12.9964 6.63344C12.9964 6.1745 12.8851 5.83378 12.6626 5.61126C12.454 5.37483 12.0576 5.2149 11.4735 5.13146C10.9033 5.04801 10.0272 5.00629 8.84503 5.00629H5.96623V8.30232H8.84503ZM32.9366 10.305L34.0214 0.854968H39.1115L36.3161 16H29.9118L28.4933 7.55132L26.8452 16H20.7121L17.9168 0.854968H23.0068L24.0707 10.1798L25.7396 0.854968H31.3095L32.9366 10.305ZM58.2765 5.23576C56.093 5.16623 53.9722 5.1245 51.9139 5.1106V16H46.6987V5.1106C44.6265 5.1245 42.5126 5.16623 40.3569 5.23576V0.854968H58.2765V5.23576Z" fill="black"/>
</svg>
